<svg id="Layer_1" data-name="Layer 1" xmlns="http://www.w3.org/2000/svg" viewBox="0 0 171.08 114.39"><defs><style>.cls-1{fill:#231f20;}.cls-1,.cls-3{stroke:#231f20;}.cls-1,.cls-2,.cls-3,.cls-4{stroke-miterlimit:10;}.cls-2{fill:none;stroke:#fff;}.cls-3{fill:#fff;}.cls-4{fill:#7f3f98;stroke:#7f3f98;}</style></defs><rect class="cls-1" x="0.5" y="0.5" width="170.08" height="113.39"/><line class="cls-2" x1="160.9" y1="11.84" x2="143.89" y2="11.84"/><line class="cls-2" x1="136.9" y1="11.84" x2="119.89" y2="11.84"/><line class="cls-2" x1="112.97" y1="11.84" x2="95.96" y2="11.84"/><rect class="cls-3" x="10.18" y="34.37" width="79.37" height="45.35" rx="2.83"/><line class="cls-2" x1="10.18" y1="87.95" x2="59.89" y2="88.38"/><rect class="cls-3" x="104.46" y="34.37" width="56.44" height="11.34" rx="2.04"/><rect class="cls-3" x="104.68" y="77.98" width="56.44" height="11.34" rx="2.05"/><rect class="cls-3" x="104.46" y="63.44" width="56.44" height="11.34" rx="2.05"/><rect class="cls-3" x="104.68" y="48.91" width="56.44" height="11.34" rx="2.05"/><path class="cls-3" d="M106.51,107h52.33a2.05,2.05,0,0,1,2,2h0v4.75H104.46v-4.7a2.05,2.05,0,0,1,2-2.1Z" transform="translate(0 0)"/><rect class="cls-3" x="104.46" y="92.51" width="56.44" height="11.34" rx="2.05"/><path class="cls-4" d="M9.66,15.81v-6A.79.79,0,0,1,10.43,9a.78.78,0,0,1,.37.09l6,3a.79.79,0,0,1,.35,1.06.84.84,0,0,1-.35.35l-6,3a.8.8,0,0,1-1.06-.36A.85.85,0,0,1,9.66,15.81Z" transform="translate(0 0)"/><path class="cls-1" d="M43.5,60.57v-9a1.19,1.19,0,0,1,1.17-1.19,1.26,1.26,0,0,1,.54.13l9,4.49a1.19,1.19,0,0,1,0,2.12l-9,4.48a1.18,1.18,0,0,1-1.58-.52A1.14,1.14,0,0,1,43.5,60.57Z" transform="translate(0 0)"/></svg>