<svg id="Layer_1" data-name="Layer 1" xmlns="http://www.w3.org/2000/svg" viewBox="0 0 171.08 114.39"><defs><style>.cls-1{fill:#231f20;stroke:#231f20;}.cls-1,.cls-2,.cls-3{stroke-miterlimit:10;}.cls-2,.cls-3{fill:none;}.cls-2{stroke:#fff;}.cls-3{stroke:#7f3f98;}</style></defs><rect class="cls-1" x="0.5" y="0.5" width="170.08" height="113.39"/><line class="cls-2" x1="160.9" y1="11.84" x2="143.89" y2="11.84"/><line class="cls-2" x1="136.9" y1="11.84" x2="119.89" y2="11.84"/><line class="cls-2" x1="112.97" y1="11.84" x2="95.96" y2="11.84"/><path class="cls-3" d="M9.94,17.57l6.21-6.64,2.57,3.64,6.22-5.78" transform="translate(0 0)"/><line class="cls-2" x1="17.77" y1="95.87" x2="157.27" y2="95.87"/><path class="cls-2" d="M27.28,86.55h5.3a2,2,0,0,1,2,2v7.31H25.27v-7.3a2,2,0,0,1,2-2Z" transform="translate(0 0)"/><path class="cls-2" d="M44.35,78.86h5.33a2,2,0,0,1,2,2v15H42.36v-15A2,2,0,0,1,44.35,78.86Z" transform="translate(0 0)"/><path class="cls-2" d="M61.46,67.53h5.3a2,2,0,0,1,2,2V95.87H59.45V69.54a2,2,0,0,1,2-2Z" transform="translate(0 0)"/><path class="cls-2" d="M77.85,73.2h5.3a2,2,0,0,1,2,2V95.87H75.84V75.21a2,2,0,0,1,2-2Z" transform="translate(0 0)"/><path class="cls-2" d="M94.94,67.53h5.3a2,2,0,0,1,2,2V95.87H92.93V69.54a2,2,0,0,1,2-2Z" transform="translate(0 0)"/><path class="cls-2" d="M112,61.86h5.3a2,2,0,0,1,2,2v32H110v-32A2,2,0,0,1,112,61.86Z" transform="translate(0 0)"/><path class="cls-2" d="M128.43,56.19h5.3a2,2,0,0,1,2,2V95.87h-9.32V58.2a2,2,0,0,1,2-2Z" transform="translate(0 0)"/><path class="cls-2" d="M145.51,50.52h5.3a2,2,0,0,1,2,2V95.87H143.5V52.53a2,2,0,0,1,2-2Z" transform="translate(0 0)"/><path class="cls-2" d="M25.27,83.66,75.9,52a1.92,1.92,0,0,1,2.66.61,1.76,1.76,0,0,1,.19.39l3.73,11.5A2,2,0,0,0,85,65.73l.09,0,62.28-24.47" transform="translate(0 0)"/><path class="cls-2" d="M140,38.84l5.88,1.91a1.24,1.24,0,0,1,.79,1.56l-1.91,5.88" transform="translate(0 0)"/><polyline class="cls-3" points="20.11 8.58 24.94 8.78 24.78 14.09"/></svg>