<svg id="Layer_1" data-name="Layer 1" xmlns="http://www.w3.org/2000/svg" viewBox="0 0 171.08 114.39"><defs><style>.cls-1{fill:#231f20;stroke:#231f20;}.cls-1,.cls-2,.cls-3{stroke-miterlimit:10;}.cls-2,.cls-3{fill:none;}.cls-2{stroke:#fff;}.cls-3{stroke:#7f3f98;}</style></defs><rect class="cls-1" x="0.5" y="0.5" width="170.08" height="113.39"/><line class="cls-2" x1="160.9" y1="9.1" x2="143.89" y2="9.1"/><line class="cls-2" x1="136.9" y1="9.1" x2="119.89" y2="9.1"/><line class="cls-2" x1="112.97" y1="9.1" x2="95.96" y2="9.1"/><ellipse class="cls-3" cx="11.99" cy="6.42" rx="5.17" ry="1.31"/><path class="cls-3" d="M17.16,9.45c0,.73-2.31,1.31-5.17,1.31s-5.16-.58-5.16-1.31" transform="translate(0 0)"/><line class="cls-3" x1="6.82" y1="6.42" x2="6.82" y2="15.24"/><line class="cls-3" x1="17.16" y1="6.42" x2="17.16" y2="15.24"/><path class="cls-3" d="M17.16,12.49c0,.73-2.31,1.31-5.17,1.31s-5.16-.58-5.16-1.31" transform="translate(0 0)"/><path class="cls-3" d="M17.16,15.13c0,.73-2.31,1.31-5.17,1.31s-5.16-.58-5.16-1.31" transform="translate(0 0)"/><ellipse class="cls-2" cx="46.78" cy="47.11" rx="21.96" ry="5.57"/><path class="cls-2" d="M68.74,60c0,3.07-9.83,5.57-22,5.57s-22-2.5-22-5.57" transform="translate(0 0)"/><line class="cls-2" x1="24.81" y1="47.11" x2="24.81" y2="84.61"/><line class="cls-2" x1="68.74" y1="47.11" x2="68.74" y2="84.61"/><path class="cls-2" d="M68.74,73c0,3.07-9.83,5.57-22,5.57s-22-2.5-22-5.57" transform="translate(0 0)"/><path class="cls-2" d="M68.74,84.17c0,3.08-9.83,5.58-22,5.58s-22-2.5-22-5.58" transform="translate(0 0)"/><line class="cls-2" x1="73.41" y1="66.02" x2="101.76" y2="65.7"/><rect class="cls-2" x="106.65" y="52.68" width="39.69" height="22.68" rx="1.28"/><circle class="cls-2" cx="109.67" cy="55.76" r="0.47"/><circle class="cls-2" cx="112.77" cy="55.76" r="0.47"/><circle class="cls-2" cx="116.13" cy="55.76" r="0.47"/><line class="cls-2" x1="106.65" y1="58.35" x2="146.33" y2="58.35"/></svg>