<svg id="Layer_1" data-name="Layer 1" xmlns="http://www.w3.org/2000/svg" viewBox="0 0 171 114"><defs><style>.cls-1,.cls-6{fill:#231f20;}.cls-1{stroke:#231f20;}.cls-1,.cls-2,.cls-3,.cls-4,.cls-5,.cls-6{stroke-miterlimit:10;}.cls-2,.cls-5{fill:none;}.cls-2,.cls-3{stroke:#fff;}.cls-3{fill:#fff;}.cls-4{fill:#7f3f98;}.cls-4,.cls-5,.cls-6{stroke:#7f3f98;}</style></defs><rect class="cls-1" x="0.5" y="0.5" width="170" height="113"/><line class="cls-2" x1="160.7" y1="10.59" x2="143.69" y2="10.59"/><line class="cls-2" x1="136.7" y1="10.59" x2="119.69" y2="10.59"/><line class="cls-2" x1="112.77" y1="10.59" x2="95.76" y2="10.59"/><circle class="cls-3" cx="64.25" cy="90.71" r="4.25"/><circle class="cls-3" cx="111.86" cy="90.71" r="4.25"/><line class="cls-2" x1="119.11" y1="82.75" x2="124.46" y2="51.14"/><path class="cls-2" d="M42.18,51.22C46.55,62,51.75,73,56.94,83c6.88,0,13.5,0,19.81-.46l42,.11" transform="translate(0 0)"/><path class="cls-2" d="M42.18,51.22c25.14-.2,51.1-.2,76-.2l.9.12h5.35" transform="translate(0 0)"/><polygon class="cls-3" points="131.85 48.7 124.02 52.64 123.34 50.91 131.16 46.97 131.85 48.7"/><line class="cls-2" x1="45.75" y1="59.67" x2="123.34" y2="59.67"/><line class="cls-2" x1="49.68" y1="68.33" x2="121.59" y2="68.11"/><line class="cls-2" x1="53.47" y1="76.19" x2="120.08" y2="75.73"/><line class="cls-2" x1="113.16" y1="51.12" x2="109.25" y2="83.02"/><line class="cls-2" x1="99.18" y1="83.02" x2="101.32" y2="51.02"/><line class="cls-2" x1="90.18" y1="82.16" x2="89.96" y2="51.02"/><line class="cls-2" x1="82.25" y1="83.02" x2="80.44" y2="51.02"/><line class="cls-2" x1="73.24" y1="82.76" x2="68.89" y2="51.22"/><line class="cls-2" x1="64.64" y1="83.02" x2="56.75" y2="51.22"/><circle class="cls-4" cx="13.11" cy="16.47" r="1"/><circle class="cls-4" cx="24.36" cy="16.47" r="1"/><line class="cls-5" x1="26.07" y1="14.59" x2="27.34" y2="7.12"/><path class="cls-5" d="M7.9,7.14a78.9,78.9,0,0,0,3.49,7.52c1.62,0,3.19,0,4.68-.11H26" transform="translate(0 0)"/><path class="cls-5" d="M7.9,7.14H27.34" transform="translate(0 0)"/><polygon class="cls-6" points="29.08 6.55 27.23 7.48 27.07 7.07 28.92 6.14 29.08 6.55"/><line class="cls-5" x1="8.74" y1="9.14" x2="27.07" y2="9.14"/><line class="cls-5" x1="9.67" y1="11.19" x2="26.66" y2="11.13"/><line class="cls-5" x1="10.57" y1="13.04" x2="26.3" y2="12.93"/><line class="cls-5" x1="24.67" y1="7.12" x2="23.74" y2="14.65"/><line class="cls-5" x1="21.36" y1="14.65" x2="21.87" y2="7.1"/><line class="cls-5" x1="19.24" y1="14.45" x2="19.19" y2="7.1"/><line class="cls-5" x1="17.37" y1="14.65" x2="16.94" y2="7.1"/><line class="cls-5" x1="15.24" y1="14.6" x2="14.21" y2="7.14"/><line class="cls-5" x1="13.21" y1="14.65" x2="11.34" y2="7.14"/></svg>