<svg id="Layer_1" data-name="Layer 1" xmlns="http://www.w3.org/2000/svg" viewBox="0 0 171.08 114.39"><defs><style>.cls-1,.cls-2{fill:#231f20;}.cls-1,.cls-3,.cls-6{stroke:#231f20;}.cls-1,.cls-2,.cls-3,.cls-4,.cls-5,.cls-6,.cls-7{stroke-miterlimit:10;}.cls-2,.cls-4,.cls-5{stroke:#fff;}.cls-3,.cls-4{fill:#fff;}.cls-5{fill:none;}.cls-6,.cls-7{fill:#7f3f98;}.cls-7{stroke:#7f3f98;stroke-width:0.3px;}</style></defs><rect class="cls-1" x="0.5" y="0.5" width="170.08" height="113.39"/><path class="cls-2" d="M32.89,93.57H134.94" transform="translate(0 0)"/><path class="cls-3" d="M103.61,93.57c-.39-.86,1.07-14.27-10.07-20.48-4.86-2.71-22.51-2.67-26.15,0C59,79.22,57.91,90.18,56.89,93.57" transform="translate(0 0)"/><circle class="cls-4" cx="81.1" cy="57.19" r="8.41"/><line class="cls-5" x1="160.9" y1="11.84" x2="143.89" y2="11.84"/><line class="cls-5" x1="136.9" y1="11.84" x2="119.89" y2="11.84"/><line class="cls-5" x1="112.97" y1="11.84" x2="95.96" y2="11.84"/><path class="cls-6" d="M19.1,17.51c-.1-.22.27-3.61-2.54-5.19-1.23-.68-5.7-.67-6.62,0-2.11,1.55-2.4,4.33-2.66,5.19" transform="translate(0 0)"/><circle class="cls-7" cx="13.41" cy="7.59" r="2.83"/></svg>