<svg id="Layer_1" data-name="Layer 1" xmlns="http://www.w3.org/2000/svg" viewBox="0 0 171.08 114.39"><defs><style>.cls-1{fill:#231f20;stroke:#231f20;}.cls-1,.cls-3{stroke-miterlimit:10;}.cls-2{fill:#fff;}.cls-3{fill:none;stroke:#fff;}.cls-4{fill:#7f3f98;}</style></defs><rect class="cls-1" x="0.5" y="0.5" width="170.08" height="113.39"/><path class="cls-2" d="M27.81,70.52l5.76-16h2.14l6.14,16H39.58l-1.74-4.83H31.56l-1.64,4.83ZM32.14,64h5.08l-1.56-4.42c-.48-1.34-.84-2.45-1.07-3.31a22.14,22.14,0,0,1-.81,3Z" transform="translate(0 0)"/><path class="cls-2" d="M43.43,70.52v-16h5.66a13.38,13.38,0,0,1,2.28.16,4.46,4.46,0,0,1,1.85.74A3.81,3.81,0,0,1,54.42,57a5.43,5.43,0,0,1-.76,5.62c-.81.94-2.28,1.41-4.4,1.41H45.42v6.49Zm2-8.37H49.3a3.91,3.91,0,0,0,2.7-.76,2.8,2.8,0,0,0,.8-2.14,3.06,3.06,0,0,0-.47-1.72,2.25,2.25,0,0,0-1.26-.94,7.66,7.66,0,0,0-1.85-.14h-3.8Z" transform="translate(0 0)"/><path class="cls-2" d="M57.74,70.52v-16h2v16Z" transform="translate(0 0)"/><line class="cls-3" x1="63.93" y1="64.46" x2="106.15" y2="64.46"/><rect class="cls-3" x="110.4" y="53.28" width="39.69" height="22.68" rx="1.28"/><circle class="cls-3" cx="113.43" cy="56.36" r="0.47"/><circle class="cls-3" cx="116.53" cy="56.36" r="0.47"/><circle class="cls-3" cx="119.89" cy="56.36" r="0.47"/><line class="cls-3" x1="110.4" y1="58.95" x2="150.08" y2="58.95"/><line class="cls-3" x1="160.9" y1="11.84" x2="143.89" y2="11.84"/><line class="cls-3" x1="136.9" y1="11.84" x2="119.89" y2="11.84"/><line class="cls-3" x1="112.97" y1="11.84" x2="95.96" y2="11.84"/><path class="cls-4" d="M8.33,17.46l4-11H13.8l4.25,11H16.48l-1.21-3.35H10.93L9.79,17.46Zm3-4.54h3.52L13.76,9.87c-.33-.93-.58-1.7-.74-2.29a13.83,13.83,0,0,1-.56,2.1Z" transform="translate(0 0)"/><path class="cls-4" d="M19.14,17.46v-11h3.92a9.25,9.25,0,0,1,1.58.1A2.8,2.8,0,0,1,25.92,7a2.69,2.69,0,0,1,.83,1.06,3.56,3.56,0,0,1,.32,1.51A3.47,3.47,0,0,1,26.23,12a3.93,3.93,0,0,1-3.05,1H20.52v4.49Zm1.38-5.79H23.2a2.73,2.73,0,0,0,1.89-.53,1.93,1.93,0,0,0,.56-1.49,2,2,0,0,0-.33-1.18,1.56,1.56,0,0,0-.86-.65,5.07,5.07,0,0,0-1.29-.1H20.52Z" transform="translate(0 0)"/><path class="cls-4" d="M29.05,17.46v-11h1.37v11Z" transform="translate(0 0)"/></svg>