<svg id="Layer_1" data-name="Layer 1" xmlns="http://www.w3.org/2000/svg" viewBox="0 0 171.08 114.39"><defs><style>.cls-1{fill:#231f20;stroke:#231f20;}.cls-1,.cls-2{stroke-miterlimit:10;}.cls-2{fill:none;stroke:#fff;}.cls-3{isolation:isolate;}.cls-4{fill:#fff;}.cls-5{fill:#7f3f98;}</style></defs><rect class="cls-1" x="0.5" y="0.5" width="170.08" height="113.39"/><line class="cls-2" x1="160.9" y1="11.84" x2="143.89" y2="11.84"/><line class="cls-2" x1="136.9" y1="11.84" x2="119.89" y2="11.84"/><line class="cls-2" x1="112.97" y1="11.84" x2="95.96" y2="11.84"/><g class="cls-3"><path class="cls-4" d="M21.6,76.37V57h3.85L30,70.73c.42,1.27.73,2.23.92,2.86.22-.7.56-1.74,1-3.1L36.61,57h3.44V76.37H37.58V60.19L32,76.37H29.66L24.07,59.92V76.37Z" transform="translate(0 0)"/><path class="cls-4" d="M43.4,67A10.53,10.53,0,0,1,46,59.42a8.8,8.8,0,0,1,6.67-2.72A9.3,9.3,0,0,1,57.48,58a8.31,8.31,0,0,1,3.27,3.57,11.57,11.57,0,0,1,1.13,5.18A11.38,11.38,0,0,1,60.69,72a8.12,8.12,0,0,1-3.36,3.52,9.64,9.64,0,0,1-4.69,1.19,9.13,9.13,0,0,1-4.88-1.32,8.53,8.53,0,0,1-3.26-3.6A11,11,0,0,1,43.4,67ZM46,67a7.74,7.74,0,0,0,1.88,5.5,6.56,6.56,0,0,0,9.47,0,8.21,8.21,0,0,0,1.86-5.76,9.93,9.93,0,0,0-.79-4.12,6.2,6.2,0,0,0-2.34-2.73,6.28,6.28,0,0,0-3.45-1A6.52,6.52,0,0,0,48,60.77C46.69,62,46,64.09,46,67Z" transform="translate(0 0)"/><path class="cls-4" d="M65.22,76.37V57h8.56a11.54,11.54,0,0,1,3.93.52,4.27,4.27,0,0,1,2.15,1.84,5.47,5.47,0,0,1,.81,2.92,4.84,4.84,0,0,1-1.34,3.46,6.73,6.73,0,0,1-4.11,1.8,6.24,6.24,0,0,1,1.54,1,13.06,13.06,0,0,1,2.13,2.57l3.36,5.26H79l-2.56-4c-.74-1.16-1.36-2-1.84-2.66a5.83,5.83,0,0,0-1.3-1.3,4,4,0,0,0-1.17-.51,7.82,7.82,0,0,0-1.42-.09h-3v8.58Zm2.55-10.8h5.5A8.28,8.28,0,0,0,76,65.21a3,3,0,0,0,1.51-1.16A3.15,3.15,0,0,0,78,62.32a2.87,2.87,0,0,0-1-2.26,4.64,4.64,0,0,0-3.14-.88H67.77Z" transform="translate(0 0)"/><path class="cls-4" d="M84.73,76.37V57h14v2.28H87.28v5.92H98v2.27H87.28v6.58H99.15v2.28Z" transform="translate(0 0)"/></g><circle class="cls-4" cx="105.96" cy="74.36" r="2.68"/><circle class="cls-4" cx="115.55" cy="74.36" r="2.68"/><circle class="cls-4" cx="125.14" cy="74.36" r="2.68"/><circle class="cls-5" cx="11.62" cy="12.97" r="2.79"/><circle class="cls-5" cx="21.59" cy="12.97" r="2.79"/><circle class="cls-5" cx="31.56" cy="12.97" r="2.79"/></svg>